<svg xmlns="http://www.w3.org/2000/svg" width="256" height="256"><path fill="#1976D2" fill-opacity=".016" fill-rule="evenodd" d="M0 128.004v128.004l128.25-.254 128.25-.254.254-127.75L257.008 0H0zm.485.496c0 70.4.119 99.053.265 63.672s.146-92.98 0-128S.485 58.1.485 128.5"/><path fill="#1976D2" fill-opacity=".466" fill-rule="evenodd" d="M104.051 1.148C78.627 3.803 41.274 15.154 23.25 25.703L19 28.19l.018 44.155c.02 46.627.567 54.573 5.097 73.959 10.851 46.444 38.141 82.469 76.15 100.528 8.793 4.177 23.441 9.168 26.91 9.168 1.139 0 6.697-1.548 12.35-3.439 49.053-16.414 81.636-54.527 94.669-110.735 2.039-8.792 2.184-12.315 2.541-61.516l.379-52.19-2.463-1.613c-4.374-2.866-26.836-12.168-38.304-15.863-12.818-4.13-31.508-8.064-45.558-9.589-11.276-1.225-34.562-1.178-46.738.093M120 5.639c-30.817 1.942-62.391 9.706-86.696 21.316l-10.408 4.972.366 49.287c.406 54.42.524 55.609 7.772 77.963 14.017 43.231 47.053 77.118 88.104 90.373l8.637 2.789 7.863-2.77c51.535-18.157 85.821-59.417 94.799-114.08 1.39-8.462 1.597-17.173 1.352-56.989l-.289-47-10.5-5.183c-18.69-9.225-44.344-16.741-65.5-19.19-10.794-1.249-27.91-1.967-35.5-1.488m-12.5 4.468c-24.525 2.579-55.036 11.167-74.75 21.042L27 34.029v84.99l49.25-.26 49.25-.259.259-54.75.258-54.75-5.258.133c-2.893.073-8.859.512-13.259.974m23.045 117.319c-.409 65.29-.451 119.002-.094 119.359.962.961 9.772-2.356 20.714-7.8 39.831-19.819 64.698-52.498 74.941-98.485 2.095-9.408 2.251-12.85 2.628-58.165l.402-48.164-9.388-4.476c-25.092-11.964-50.818-18.682-77.855-20.331l-10.606-.647zM76 53.392V70h5.417c3.355 0 5.638-.476 6-1.25.466-1 .7-1 1.166 0 .38.813 2.866 1.25 7.109 1.25 6.278 0 6.502.085 5.924 2.25-1.679 6.292-1.804 7.27-.732 5.75 2.666-3.782 2.338-9.716-1.406-25.394l-3.721-15.583-2.629.739c-3.445.967-10.914.889-14.378-.152L76 36.783zm4.022-9.433c-.576 1.077-.871 4.082-.655 6.677.325 3.905.975 5.198 3.763 7.485 3.227 2.648 3.289 2.825 1.467 4.171-1.804 1.331-1.73 1.466 1.399 2.557C90.925 66.567 93 66.315 93 64c0-1.467-.667-2-2.5-2-3.326 0-3.159-.712 1-4.265 3.161-2.7 3.499-3.485 3.485-8.112-.014-4.557-1.278-8.866-2.228-7.594-1.064 1.424-2.77 6.363-2.857 8.268-.092 2.037-.152 2.014-.795-.297-.382-1.375-1.35-2.5-2.15-2.5-.949 0-1.372.87-1.218 2.5.352 3.701-1.317.409-2.154-4.25-.746-4.151-1.969-4.767-3.561-1.791m-15.373-.2c-.351.567.035 1.289.857 1.605C66.328 45.679 67 46.865 67 48s.658 2.315 1.462 2.624c.804.308 1.724 1.386 2.044 2.395.702 2.212-1.951 8.981-3.521 8.981-2.285 0-4.747-2.011-5.915-4.832-.984-2.375-.919-3.62.357-6.788l1.562-3.88-2.088 2.477c-2.744 3.253-2.011 7.995 1.929 12.482l2.938 3.346 3.116-2.846C70.739 60.264 72 58.128 72 56.678c0-4.684-5.963-15.164-7.351-12.919m.268 6.682c-.443 2.967-.075 7.56.606 7.564 1.078.006 1.314-6.987.258-7.64-.43-.266-.818-.231-.864.076M50.6 59.6c-.967 3.067-1.578 5.756-1.358 5.976s1.191-2.109 2.158-5.176 1.578-5.756 1.358-5.976-1.191 2.109-2.158 5.176m27.895 4.408c-.342.554.081 1.711.941 2.571S81 67.687 81 67.13c0-.556-.457-1.295-1.016-1.64-.559-.346-.758-1.047-.441-1.559.316-.512.35-.931.075-.931s-.78.453-1.123 1.008m15.964 2.059c-1.026 1.66-.105 1.89 1.33.332.71-.769.849-1.399.309-1.399-.539 0-1.277.48-1.639 1.067M91 68c0 .55.477 1 1.059 1s.781-.45.441-1-.816-1-1.059-1-.441.45-.441 1m-42 4.137c0 1.663 7.649 27.713 8.385 28.557.093.106 2.131-.247 4.528-.786 3.289-.739 5.603-.614 9.436.51 2.793.818 5.282 1.284 5.531 1.035s-.072-.453-.713-.453C75.328 101 75 96.643 75 85.5V70H62c-12.611 0-13 .064-13 2.137m14 3.905c0 1.93-.386 2.131-3.061 1.596-2.51-.502-3.029-.3-2.885 1.125C57.38 81.982 57.007 83 55.5 83c-2.146 0-1.851 1.742.509 3.005 1.449.775 1.848 1.715 1.433 3.372-.519 2.065-.281 2.253 2.35 1.867 2.393-.351 3.052-.003 3.618 1.913.686 2.323.7 2.325 1.557.232 1.062-2.591 3.41-3.612 4.894-2.128.608.608 1.421.791 1.806.406s.202-1.198-.406-1.806C69.88 88.48 70.744 86 72.607 86c.766 0 1.393-.675 1.393-1.5s-.627-1.5-1.393-1.5c-1.696 0-2.894-2.704-1.563-3.527 1.969-1.217.848-2.263-2.272-2.12-2.179.099-3.235-.313-3.25-1.27-.012-.779-.584-1.604-1.272-1.833-.748-.249-1.25.469-1.25 1.792m22.109 3.981c.64 1.912 1.565 3.917 2.055 4.454.49.538.367-.587-.273-2.5-.64-1.912-1.565-3.917-2.055-4.454-.49-.538-.367.587.273 2.5M60 81c-2.407 2.407-2.501 3.84-.443 6.777C62.347 91.761 70 89.431 70 84.598c0-5.017-6.31-7.288-10-3.598m33.086-1c-.031.825.381 2.175.914 3 1.181 1.828 1.181.249 0-2.5-.567-1.319-.878-1.489-.914-.5m-30.34 4.548c-.374 1.959-.112 2.477 1.133 2.237.892-.172 1.621-.885 1.621-1.585s.675-1.7 1.5-2.221c1.168-.738.917-.952-1.133-.964-2.034-.012-2.745.565-3.121 2.533M82 84.032c0 .568-1.013 1.439-2.25 1.937l-2.25.904 2.215.064c1.239.035 2.686-.818 3.285-1.937.726-1.356.737-2 .035-2-.569 0-1.035.465-1.035 1.032m7.5.968c-.995 1.1-1.306 2-.69 2s1.601-.9 2.19-2 .899-2 .69-2-1.195.9-2.19 2m-2 5c.34.55.816 1 1.059 1s.441-.45.441-1-.477-1-1.059-1-.781.45-.441 1m3.5.559c0 .857.457 1.276 1.016.931.559-.346.758-1.047.441-1.559C91.6 88.544 91 88.802 91 90.559m0 10.834c0 .216.675.652 1.5.969s1.5.139 1.5-.393c0-.533-.675-.969-1.5-.969s-1.5.177-1.5.393m-64 24.2c0 4.214 4.529 23.171 8.094 33.879 7.425 22.302 18.424 39.94 34.829 55.849 14.181 13.753 29.751 23.537 47.741 30l7.164 2.574.366-61.197c.202-33.659.214-61.536.027-61.948-.186-.412-22.362-.75-49.28-.75-44.105 0-48.941.157-48.941 1.593m35.667 8.074c-.367.366-.653 1.379-.637 2.25.026 1.341.187 1.315 1.05-.167 1.412-2.425 6.553-2.305 7.885.184.569 1.064 1.035 3.001 1.035 4.304 0 3.054-5.128 11.144-8.437 13.313-4.178 2.737-2.999 3.554 4.676 3.243 5.66-.23 7.306-.64 7.542-1.879.264-1.385-.333-1.455-4.714-.558-2.759.565-5.33.713-5.714.329s1.126-2.26 3.356-4.169c5.037-4.312 7.84-10.606 6.152-13.813-.638-1.212-1.656-2.535-2.261-2.939-1.379-.92-9.035-.996-9.933-.098m21.562.002c-3.907 1.572-5.647 13.688-2.766 19.259 3.647 7.053 11.697 4.758 13.64-3.889 2.431-10.82-3.023-18.529-10.874-15.37m-.254 2.896c-1.432 3.767-1.188 11.99.474 15.967 1.644 3.934 4.83 4.684 6.516 1.534 1.645-3.074 1.289-15.259-.522-17.843-2.116-3.022-5.252-2.856-6.468.342M67.25 173.131c-3.488 2.217-4.222 3.179-1.681 2.204 1.375-.527 1.53.656 1.25 9.534l-.319 10.135 2.5.001c2.486 0 2.499-.045 2.231-8.253-.149-4.538-.374-9.925-.5-11.969l-.231-3.718zm15-1.469c-.687.278-1.25 1.467-1.25 2.644v2.139l1.557-2.222C85.543 169.96 91 172.49 91 178.137c0 4.031-1.386 6.489-6.828 12.113L79.575 195h7.596c7.337 0 7.612-.087 8.081-2.536.445-2.33.347-2.411-1.213-1-.982.89-3.542 1.536-6.08 1.536h-4.384l4.656-4.75c4.176-4.261 6.769-8.613 6.769-11.361 0-.539-1.105-2.084-2.455-3.434-2.349-2.35-6.936-3.148-10.295-1.793m58.002 10.838c.011 2.2.216 2.982.455 1.738s.23-3.044-.02-4-.446.062-.435 2.262m11.629-.281c.461 2.777.601 2.917.916.916.205-1.301-.04-2.778-.544-3.282-.555-.555-.701.378-.372 2.366m22.371.281c.011 2.2.216 2.982.455 1.738s.23-3.044-.02-4-.446.062-.435 2.262m6.98-.5c0 1.925.206 2.713.457 1.75.252-.963.252-2.537 0-3.5-.251-.963-.457-.175-.457 1.75M146 181.941c0 1.068.385 2.179.856 2.47.47.291.643-.583.383-1.941-.564-2.951-1.239-3.239-1.239-.529M167.5 183c.853 1.65 1.776 3 2.051 3s-.198-1.35-1.051-3-1.776-3-2.051-3 .198 1.35 1.051 3m19.5-2.377c0 .513.9 1.703 2 2.645s2 1.337 2 .877-.9-1.65-2-2.645-2-1.39-2-.877m-48.985 11.627c.011 2.21.292 2.814.878 1.889.786-1.241.4-5.139-.51-5.139-.21 0-.376 1.463-.368 3.25m5.217-.25c0 1.925.206 2.713.457 1.75.252-.963.252-2.537 0-3.5-.251-.963-.457-.175-.457 1.75m3.926-1c0 1.375.227 1.938.504 1.25.278-.687.278-1.812 0-2.5-.277-.687-.504-.125-.504 1.25m19.913-1.5c0 .55.643 2.125 1.429 3.5s1.429 2.05 1.429 1.5-.643-2.125-1.429-3.5-1.429-2.05-1.429-1.5m16.5 1.5c.359 1.375 1.053 2.928 1.541 3.45 1.428 1.527.99-.664-.689-3.45l-1.506-2.5zm5.681 1.5c.011 2.2.216 2.982.455 1.738s.23-3.044-.02-4-.446.062-.435 2.262m-33.188-2c0 .55.66 1.874 1.468 2.941.807 1.068 1.468 1.491 1.468.941s-.661-1.873-1.468-2.941c-.808-1.067-1.468-1.491-1.468-.941m18.936 2c1.292 1.375 2.574 2.5 2.849 2.5s-.557-1.125-1.849-2.5-2.574-2.5-2.849-2.5.557 1.125 1.849 2.5m-12.921 2.083c.048 1.165.285 1.402.604.605.289-.722.253-1.585-.079-1.917s-.568.258-.525 1.312"/><path fill="#1976D2" fill-opacity=".291" fill-rule="evenodd" d="M114.5.708C87.583 2.185 52.781 11.28 29.738 22.858L20.5 27.5V78c0 49.241.059 50.774 2.353 61.5 7.066 33.036 19.876 58.863 39.118 78.867 16.048 16.684 36.604 29.432 56.693 35.16l9.165 2.613 10.617-3.553c22.204-7.43 38.835-17.628 54.601-33.482 20.679-20.793 33.647-45.67 41.1-78.841 2.068-9.205 2.216-12.697 2.588-60.967l.395-51.203-6.117-3.088C205.316 12.035 173.657 3.21 145 1.031 131.995.042 127.486-.005 114.5.708M108 6.125c-23.582 2.383-53.752 10.613-74.75 20.39L23 31.288l.008 48.106c.008 47.024.062 48.368 2.432 59.755 6.741 32.397 19.581 57.086 40.488 77.851 15.112 15.01 32.306 25.871 51.24 32.369 9.775 3.354 12.079 3.306 21.556-.453 49.467-19.62 80.621-56.639 91.437-108.651 2.103-10.115 2.261-13.711 2.607-59.55l.368-48.784-13.318-6.366C185.092 8.966 146.415 2.242 108 6.125m-7.5 5.44c-21.184 2.879-45.427 9.86-64.36 18.533L27 34.285v85.009l35.25-.634c19.387-.348 41.438-.64 49-.647L125 118V10l-7.25.103c-3.987.057-11.75.715-17.25 1.462M131 128.491v118.492l6.517-2.453c18.876-7.105 36.034-18.092 50.019-32.029 15.15-15.097 25.947-32.739 32.956-53.85 6.858-20.653 6.811-20.175 7.238-74.723l.387-49.573-11.808-5.547c-24.371-11.449-54.269-18.739-77.059-18.79L131 10zm43.159-92.147c1.463.65 3.513 1.851 4.556 2.669s.626.25-.925-1.263-3.602-2.713-4.556-2.669c-1.195.056-.908.448.925 1.263M73.5 36.976c-1.1.486-4.25.954-7 1.04-4.256.133-4.597.278-2.288.973 1.491.45 4.416.422 6.5-.062s4.126-.89 4.538-.903.75 7.088.75 15.781v15.804l-12.25-.359c-6.737-.198-12.748-.448-13.358-.555-.684-.12.743-6.114 3.737-15.695 5.482-17.539 5.168-16.302 3.947-15.547-.508.314-3.03 7.196-5.604 15.294-5.479 17.239-5.479 17.247.444 35.935l4.177 13.182 3.042-1.061c1.813-.632 5.129-.764 8.204-.326 2.838.404 8.986.8 13.661.879s9.26.519 10.189.978c1.39.685 1.893.065 2.841-3.5.633-2.384 2.685-9.102 4.561-14.929s3.414-12.352 3.419-14.5c.008-3.021-4.396-24.548-6.571-32.119-.262-.911-1.104-.95-3.381-.156-2.919 1.017-11.407.773-15.558-.449-1.1-.323-2.9-.191-4 .295M185 38.941c0 .518.445 1.216.989 1.552.566.35.734-.051.393-.941-.665-1.732-1.382-2.049-1.382-.611M80.728 44.048c-2.307 3.472-1.139 11.033 1.913 12.385 1.159.513 2.666 1.83 3.351 2.926 1.037 1.66.967 2.197-.412 3.206-1.464 1.071-1.285 1.342 1.53 2.324 4.528 1.578 5.89 1.388 5.89-.823 0-1.517-.539-1.836-2.5-1.48-3.484.632-3.282-1.977.417-5.392 2.846-2.628 3.576-5.21 3.234-11.444-.083-1.513-.511-2.75-.95-2.75-1.109 0-3.458 6.776-2.747 7.925.318.515.134 1.211-.408 1.547-.543.335-1.274-.534-1.625-1.931C87.578 47.182 86 47.286 86 50.7c0 4.204-1.762 1.492-2.73-4.2l-.85-5zm-16.093-.267c-.337.546.057 1.548.876 2.228s1.444 2.193 1.389 3.363c-.089 1.902-.181 1.862-.862-.372-.662-2.17-.862-2.267-1.513-.735-.413.971-.508 2.694-.211 3.829.394 1.504.153 1.915-.887 1.516-1.854-.711-1.799-.049.289 3.486 2.087 3.533 2.467 3.572 3.94.395.637-1.371.748-2.241.247-1.931-.5.309-.769-.354-.598-1.473.424-2.781 1.211-3.376 2.464-1.861 1.21 1.462.469 6.774-.945 6.774-.518 0-.693.403-.389.895 1.201 1.943-2.461 1.872-4.962-.095-2.202-1.732-2.582-2.705-2.226-5.694.236-1.983.803-4.506 1.261-5.606.831-1.999.83-1.999-1.441-.003-1.91 1.68-2.191 2.707-1.768 6.461.325 2.887 1.244 5.063 2.602 6.163 1.154.935 2.099 2.19 2.099 2.789 0 2.372 3.653.816 6.332-2.696 2.258-2.961 2.721-4.407 2.286-7.133-.301-1.881-1.052-3.731-1.668-4.112s-1.168-1.092-1.227-1.581c-.206-1.725-4.478-5.594-5.088-4.607m108.184 11.726c-3.674 2.453-6.991 4.962-7.37 5.575s2.74-1.245 6.931-4.129c6.584-4.532 8.449-6.032 7.37-5.929-.137.013-3.256 2.03-6.931 4.483m6.688-.518c-.35.566.051.734.941.393 1.732-.665 2.049-1.382.611-1.382-.518 0-1.216.445-1.552.989m-18.812 5.396c-2.032 1.862-3.695 3.989-3.695 4.728s1.377-.327 3.059-2.369c1.683-2.041 3.82-4.155 4.75-4.697s1.216-1 .636-1.017-2.717 1.493-4.75 3.355m43.435.219c-.753 2.143-2.328 5.018-3.5 6.389l-2.13 2.493 2.352-1.991c2.879-2.436 5.378-7.076 4.958-9.208-.17-.868-.926.174-1.68 2.317m-49.126 1.892c-1.29 1.373-2.124 2.717-1.854 2.988.271.27 1.486-.853 2.701-2.496 2.691-3.64 2.315-3.858-.847-.492m32.051 1.004c-.029 2.393 1.579 5.2 2.469 4.309.348-.347-.06-1.909-.906-3.471-1.268-2.34-1.542-2.487-1.563-.838m20.938 2.75c-.004.688-1.589 2.327-3.522 3.644-1.934 1.317-3.293 2.617-3.021 2.89.838.837 7.55-4.794 7.55-6.335 0-.797-.225-1.449-.5-1.449s-.503.563-.507 1.25m-59.534 2.817c-.363.586-.445 1.281-.183 1.543s.743-.218 1.069-1.067c.676-1.762.1-2.072-.886-.476M76 85.05v15.049l5.75-.636c3.288-.364 6.917-.186 8.474.416 2.696 1.041 2.744.987 4.567-5.163 1.777-5.999 1.778-6.227.025-6.536C92.81 87.827 92.293 86 94.2 86c.897 0 .88-.315-.067-1.25-1.016-1.002-1.525-.902-2.561.5-.711.963-2.368 1.721-3.682 1.687l-2.39-.064 2.25-.904C88.987 85.471 90 84.6 90 84.032c0-.567.675-1.032 1.5-1.032s1.493-.787 1.485-1.75c-.013-1.468-.166-1.513-.946-.279-.512.809-1.244 1.157-1.627.774s-.164-1.339.487-2.124c.92-1.108.896-1.529-.107-1.887-.711-.253-.974-.802-.585-1.221 1.53-1.646 3.57.543 4.705 5.05 1.396 5.547 2.275 5.014 4.477-2.717C102.059 69.475 102.704 70 88.5 70H76zm132-11.219c0 .457-1.124 1.433-2.498 2.168-3.244 1.736-2.551 2.436.869.878C208.57 75.875 210.149 73 208.5 73c-.275 0-.5.374-.5.831M63.204 77.045c-.773 1.238-.839 1.955-.181 1.955.572 0 1.306-.694 1.632-1.543.9-2.346-.072-2.621-1.451-.412M82 76.893c0 .491.611 1.127 1.358 1.414s1.635 1.91 1.975 3.607C85.672 83.611 86.442 85 87.042 85s.859-.787.573-1.75-.815-2.987-1.176-4.5c-.429-1.8-1.31-2.75-2.547-2.75-1.041 0-1.892.402-1.892.893m107.141 4.357c-1.229 2.612-2.655 4.75-3.169 4.75s-1.204 1.076-1.534 2.39-1.913 3.649-3.519 5.188C179.314 95.116 178 97.002 178 97.77c0 2.755 2.551.482 5.333-4.75 3.027-5.695 5.097-8.257 5.967-7.387 1.015 1.016 2.823-3.732 2.45-6.432-.35-2.527-.517-2.396-2.609 2.049M57.5 79c.34.55 1.379.993 2.309.985 1.457-.014 1.484-.15.191-.985-1.958-1.266-3.282-1.266-2.5 0m11.043-.069a1.086 1.086 0 0 0 .336 1.494c.501.31 1.169-.109 1.485-.931.622-1.62-.881-2.085-1.821-.563m14.172 2.819c-.479 2.339-1.216 3.25-2.631 3.25-1.081 0-2.244.45-2.584 1-.347.561.438 1 1.786 1 3.3 0 5.568-2.866 4.748-6-.634-2.423-.675-2.4-1.319.75m61.364-.167c.048 1.165.285 1.402.604.605.289-.722.253-1.585-.079-1.917s-.568.258-.525 1.312m30.021.712c-1.265 2.107-1.243 2.128.479.479.991-.95 1.587-1.942 1.324-2.205s-1.074.514-1.803 1.726m-14.37.368c-.735 1.242 1.034 5.337 2.305 5.337.675 0 .837-.869.42-2.25-.846-2.801-2.072-4.19-2.725-3.087m42.77.944-4 1.398 4-.58c2.2-.319 4.428-.996 4.95-1.503 1.259-1.222.016-1.05-4.95.685m-146.946.295c-1.858.727-1.847.788.25 1.336 1.493.391 2.196.124 2.196-.832 0-.773-.112-1.374-.25-1.336s-1.126.413-2.196.832m8.084.598c.317.825.753 1.5.969 1.5s.393-.675.393-1.5-.436-1.5-.969-1.5-.709.675-.393 1.5m6.608.884c-.087 1.15.16 1.601.548 1.003s1.369-1.301 2.18-1.562c1.089-.35.946-.613-.548-1.003-1.527-.4-2.061-.017-2.18 1.562m101.833 2.199c.048 1.165.285 1.402.604.605.289-.722.253-1.585-.079-1.917s-.568.258-.525 1.312M57.636 89.506c-.315.822-.164 1.494.336 1.494 1.356 0 2.198-1.777 1.149-2.425-.501-.31-1.169.109-1.485.931M68 89c-.825.533-2.733.976-4.24.985-2.655.015-2.686.078-1.008 2.038 1.209 1.412 1.856 1.639 2.14.75.609-1.901 2.39-2.795 4.352-2.185 1.277.398 1.583.124 1.143-1.023-.704-1.833-.5-1.784-2.387-.565m19.246 1.239c.569 1.706 5.754 2.109 5.754.447 0-.856-1.165-1.415-3.062-1.469-1.827-.052-2.912.36-2.692 1.022m113.516-.532c1.244.239 3.044.23 4-.02s-.062-.446-2.262-.435-2.982.216-1.738.455M170 93.321c0 1.567 3.674 5.679 5.074 5.679 1.368 0-.37-3.036-2.999-5.24-1.479-1.241-2.075-1.367-2.075-.439M197.5 95c1.1.473 2.675.859 3.5.859.945 0 .761-.317-.5-.859-1.1-.473-2.675-.859-3.5-.859-.945 0-.761.317.5.859m-3 4c2.749 1.181 4.328 1.181 2.5 0-.825-.533-2.175-.945-3-.914-.989.036-.819.347.5.914m-21 5c.34.55 1.041 1 1.559 1s.941-.45.941-1-.702-1-1.559-1-1.281.45-.941 1m5.313-.317c.721.289 1.584.253 1.916-.079s-.258-.568-1.312-.525c-1.165.048-1.402.285-.604.604M175 108c0 .55.477 1 1.059 1s.781-.45.441-1-.816-1-1.059-1-.441.45-.441 1m3 .059c0 .582.45.781 1 .441s1-.816 1-1.059-.45-.441-1-.441-1 .477-1 1.059m-1.187 8.624c.721.289 1.584.253 1.916-.079s-.258-.568-1.312-.525c-1.165.048-1.402.285-.604.604m4.751 1.024c-.542 1.425-.428 1.54.56.56.684-.679.991-1.486.683-1.793-.308-.308-.867.247-1.243 1.233m.541 5.207c-.994.629-1.234 2.088-.834 5.067.697 5.201 1.494 6.061 3.311 3.576 1.494-2.043 1.828-5.326.811-7.975-.69-1.798-1.306-1.923-3.288-.668M68.75 124.75l-40.75.272.009 2.739c.013 4.006 4.356 22.493 7.455 31.739 11.448 34.148 34.988 62.168 65.442 77.897 7.23 3.734 21.756 9.603 23.769 9.603.179 0 .325-27.675.325-61.5V124l-7.75.238c-4.263.132-26.087.362-48.5.512m-5.5 8.281c-1.237.498-2.25 1.744-2.25 2.77 0 2.929 1.214 3.403 2.436.952 2.404-4.822 7.564-2.82 7.564 2.935 0 4.492-1.258 6.807-6.828 12.562L59.575 157h8.106c8.371 0 9.319-.482 9.319-4.737 0-1.401-.2-1.392-1.829.082-1.04.941-3.501 1.655-5.708 1.655h-3.879l4.091-4.25c2.25-2.338 4.594-5.233 5.208-6.434 3.752-7.339-3.347-13.615-11.633-10.285m20.867.6c-9.618 6.736-4.003 27.919 6.171 23.284 3.982-1.815 6.014-7.063 5.498-14.2-.363-5.02-.888-6.406-3.166-8.366-3.218-2.768-5.323-2.945-8.503-.718m.741 2.619c-1.812 3.362-1.448 14.2.58 17.296.929 1.418 2.223 2.402 2.876 2.187 3.563-1.175 4.882-11.936 2.237-18.265-1.665-3.984-3.94-4.471-5.693-1.218m82.601 6.817c-.363.586-.445 1.281-.183 1.543s.743-.218 1.069-1.067c.676-1.762.1-2.072-.886-.476M186 159.268c0 1.431-.439 3.756-.975 5.167-.873 2.296-.732 2.565 1.341 2.565 2.181 0 2.277-.264 1.633-4.51-.781-5.143-1.999-7.107-1.999-3.222M84 170.985c-1.891.449-2.556 1.315-2.731 3.555-.224 2.865-.194 2.886.925.66.895-1.78 1.853-2.233 4.231-2 2.692.263 3.115.722 3.399 3.688.518 5.429-.52 7.702-5.967 13.063L78.729 195h8.028c8.33 0 9.291-.504 9.213-4.832-.028-1.506-.13-1.499-1.05.082-.731 1.255-2.288 1.75-5.504 1.75H84.93l3.586-3.148c10.39-9.123 7.461-20.712-4.516-17.867m-17.797 2.444c-4.737 3.35-5.038 3.819-1.951 3.044l2.748-.69v9.109c0 8.441-.146 9.108-2 9.108-1.1 0-2 .388-2 .862s2.475.826 5.5.782 5.5-.432 5.5-.862-.675-.782-1.5-.782c-1.246 0-1.5-1.944-1.5-11.5 0-6.325-.338-11.478-.75-11.451s-2.234 1.098-4.047 2.38m80.7 6.668c-1.541 1.541-1.727 2.363-.891 3.926 2.134 3.986 8.896 1.414 7.537-2.867-.897-2.829-4.33-3.375-6.646-1.059m41.347-1.379c-1.746.627-1.558 2.781.383 4.392 1.478 1.227 1.407 1.418-.75 2.023-2.308.647-2.297.671.367.767 2.067.075 2.75-.37 2.75-1.793 0-1.041-.787-2.214-1.75-2.607-1.619-.661-1.605-.769.184-1.435 1.063-.396 1.513-.962 1-1.258-.514-.295-1.496-.335-2.184-.089m-50.5.944c.688.278 1.25 1.817 1.25 3.421 0 1.605.45 2.917 1 2.917s1-1.317 1-2.927c0-1.946.586-3.08 1.75-3.384.963-.251-.05-.474-2.25-.494s-3.437.19-2.75.467m19 0c.688.278 1.25 1.817 1.25 3.421 0 1.605.45 2.917 1 2.917s1-1.317 1-2.927c0-1.946.586-3.08 1.75-3.384.963-.251-.05-.474-2.25-.494s-3.437.19-2.75.467m7.951 2.838c-.918 1.925-1.226 3.5-.685 3.5s.984-.45.984-1c0-1.443 2.75-1.233 3.28.25.245.688.725.995 1.066.684.7-.64-1.46-6.934-2.38-6.934-.328 0-1.347 1.575-2.265 3.5m8.299 0c0 3.18.252 3.489 2.75 3.384 1.692-.071 2.077-.292 1-.573-1.164-.304-1.75-1.438-1.75-3.384 0-1.61-.45-2.927-1-2.927s-1 1.575-1 3.5m8 0c0 1.925.45 3.5 1 3.5s1-1.575 1-3.5-.45-3.5-1-3.5-1 1.575-1 3.5m-33.41-1.646c-.993 1.607.553 4.265 2.286 3.931 2.13-.41 2.104-4.165-.033-4.577-.911-.175-1.925.116-2.253.646m41.66 7.808c-.687.278-1.25 2.042-1.25 3.921 0 3.089.264 3.406 2.75 3.301 1.692-.071 2.077-.292 1-.573-2.038-.533-2.3-1.921-.5-2.652.941-.381.879-.769-.25-1.568-1.287-.91-1.243-1.063.309-1.076.995-.008 1.531-.465 1.191-1.015-.662-1.07-1.276-1.134-3.25-.338M138 192.5c0 1.925.45 3.5 1 3.5s1-.675 1-1.5.675-1.5 1.5-1.5 1.5.675 1.5 1.5.45 1.5 1 1.5 1-1.575 1-3.5-.45-3.5-1-3.5-1 .6-1 1.333c0 .734-.675 1.334-1.5 1.334s-1.5-.6-1.5-1.334c0-.733-.45-1.333-1-1.333s-1 1.575-1 3.5m9-.469c0 3.377 2.281 4.907 4.886 3.277 1.837-1.149 2.802-6.308 1.18-6.308-.586 0-1.066 1.35-1.066 3q0 3-1.5 3t-1.5-3c0-1.65-.45-3-1-3s-1 1.364-1 3.031m8.654-1.571c-.36.937-.622 2.679-.584 3.872.068 2.094.099 2.099.893.168.753-1.832.882-1.853 1.534-.256.392.96 1.115 1.496 1.608 1.191 1.28-.791 1.092-1.621-.973-4.307-1.611-2.094-1.901-2.173-2.478-.668m4.957.112c-.869 2.265 1.127 5.428 3.424 5.428 1.081 0 1.965-.45 1.965-1 0-1.443 2.75-1.233 3.28.25.245.688.766.954 1.157.593s-.054-2.135-.987-3.941c-1.607-3.107-1.772-3.182-3.074-1.401-.757 1.035-1.376 2.47-1.376 3.19s-.45 1.309-1 1.309-1-1.35-1-3c0-3.201-1.39-4.031-2.389-1.428M172 192.5c0 1.925.48 3.5 1.067 3.5.613 0 .797-.853.433-2-.349-1.1-.254-2 .212-2s1.495.9 2.288 2c2.1 2.913 3 2.463 3-1.5 0-1.925-.408-3.5-.906-3.5s-.657 1.012-.352 2.25l.554 2.25-2.462-2.25c-3.311-3.025-3.834-2.854-3.834 1.25m9.452-.407c-.88 1.701-1.28 3.389-.889 3.75s.912.095 1.157-.593c.246-.687 1.047-1.25 1.78-1.25s1.534.563 1.78 1.25c.245.688.766.954 1.157.593.675-.625-1.994-6.843-2.937-6.843-.247 0-1.168 1.392-2.048 3.093"/><path fill="#1976D2" fill-opacity=".526" fill-rule="evenodd" d="M99.5 2.471C76.316 5.64 51.42 12.926 31.636 22.33L20 27.861l.004 45.819c.004 47.115.372 52.922 4.539 71.658 9.906 44.538 35.935 80.267 72.053 98.903C106.955 249.587 122.253 255 127 255c1.763 0 7.249-1.355 12.191-3.011 46.586-15.607 79.073-51.643 92.238-102.312 4.893-18.834 5.571-28.146 5.571-76.555V28.313l-10.94-5.195C204.744 12.996 182.896 6.367 159.5 2.923c-15.159-2.232-45.324-2.459-60-.452m5 3.694C81.864 8.72 50.581 17.626 32 26.807L22.5 31.5l.012 48.5c.012 46.621.1 48.897 2.27 58.751 8.443 38.352 25.748 67.605 52.762 89.189 12.778 10.21 31.592 19.967 45.399 23.545l5.869 1.521 9.344-3.562c50.515-19.257 83.731-59.641 92.83-112.863 1.822-10.656 2.014-16.238 2.014-58.519V31.323l-11.75-5.595c-21.08-10.038-41.957-16.245-64.551-19.19-12.846-1.674-39.017-1.861-52.199-.373m77.427 32.563c1.69 2.05 3.073 4.252 3.073 4.893s.631 1.407 1.402 1.703c1.924.738 3.816 9.967 2.643 12.889-.833 2.075-.924 2.101-.982.286-.089-2.814-7.471-16.605-10.252-19.152-2.605-2.386-7.499-4.269-6.377-2.454.376.609 1.302 1.107 2.058 1.107 1.953 0 8.21 7.939 9.067 11.505l.719 2.995-2.115-2.627c-1.163-1.445-3.125-2.891-4.361-3.214-1.946-.509-1.85-.273.721 1.778 2.93 2.336 2.943 2.39 1.075 4.455-1.041 1.15-3.813 3.216-6.161 4.592s-6.147 4.643-8.443 7.259c-5.386 6.14-3.265 1.779 3.279-6.743l4.992-6.5-6.036 5.874c-3.32 3.23-6.823 7.617-7.785 9.75S156.306 71 155.829 71c-1.247 0 .073-5.064 2.085-8 3.176-4.631 3.474-5.539 1.151-3.5-2.787 2.447-6.065 8.672-6.065 11.519 0 1.348-.419 1.84-1.17 1.376-.791-.489-.953-.185-.5.941 1.844 4.58 1.896 5.241.252 3.223-1.863-2.286-2.013-4.852-.46-7.875.891-1.732.866-1.942-.119-1.014-.683.643-1.576 2.992-1.983 5.221-.603 3.298-.394 4.366 1.126 5.741 2.848 2.578 1.365 2.868-2.088.409-3.366-2.396-3.493-2.315-2.103 1.34.656 1.726 2.22 2.891 5 3.724 2.225.666 4.045 1.639 4.045 2.162 0 1.11-4.282.198-8.25-1.758-3.022-1.49-3.242-1.296-1.732 1.525.696 1.301 2.586 2.11 5.981 2.56 2.903.385 4.708 1.072 4.348 1.654-.367.594-2.798.739-6.024.36-5.236-.615-5.373-.57-4.303 1.43.962 1.796 1.717 1.983 5.793 1.43 2.578-.35 5.587-.847 6.687-1.104 1.965-.459 1.967-.441.074 1.073-1.059.847-4.097 1.829-6.75 2.181-5.357.71-5.994 1.528-2.45 3.143 1.918.873 3.344.631 7.432-1.262 4.611-2.137 5.046-2.187 4.924-.566-.074.977-.83 1.73-1.682 1.672-.851-.058-1.424.491-1.273 1.219s-.162 1.055-.696.725-2.457.03-4.274.799l-3.305 1.398 2.803.749c2.188.584 3.604.179 6.447-1.844 3.706-2.637 5.455-2.808 3.401-.333-.623.751-.8 1.734-.392 2.184.407.45.206.512-.449.136-1.373-.787-7.637 2.702-6.64 3.699 1.358 1.358 4.269.585 7.253-1.926 4.024-3.386 3.999-1.075-.029 2.688-2.862 2.673-2.937 2.901-.954 2.901 1.183 0 3.255-1.105 4.605-2.455 2.213-2.212 2.455-2.267 2.455-.559 0 1.043-.536 2.227-1.19 2.632-.735.454.176 1.145 2.385 1.809 3.285.986 3.498 1.276 2.621 3.573-.885 2.321-1.047 2.374-2.252.74-1.162-1.574-1.433-1.279-2.574 2.797-.702 2.507-2.145 5.661-3.206 7.01-1.845 2.347-1.85 2.453-.092 2.453 2.889 0 7.62 13.071 5.259 14.53-.541.335-.777.943-.524 1.351.252.409-.64 2.023-1.984 3.587-2.875 3.346-2.674 2.704-2.869 9.177-.085 2.83-.812 5.952-1.615 6.937-1.308 1.608-1.278 1.725.291 1.137 2.121-.795 4.954.143 4.185 1.386-.307.497 2.253.82 5.756.727 4.187-.112 5.048-.3 2.559-.56-3.657-.383-3.752-.497-3.839-4.582-.201-9.462-.132-11.802.365-12.299.669-.669 8.26 14.698 8.081 16.359-.084.778 1.052 1.22 3.004 1.171 1.726-.043 2.606-.296 1.955-.561-.891-.363-.829-1.489.25-4.547.789-2.235 1.373-6.37 1.298-9.189s-.331-4.112-.57-2.874c-1.059 5.501-3.742.41-3.089-5.862l.353-3.388 1.711 3.5c1.246 2.55 1.564 2.821 1.173 1-.401-1.863-.291-2.114.429-.983.778 1.219 3.129 17.711 3.129 21.944 0 .571.702 1.039 1.559 1.039 1.005 0 1.276-.444.763-1.25-.437-.687-1.126-6.65-1.531-13.25s-1.016-13.863-1.358-16.141c-.719-4.782 1.571-9.359 4.682-9.359 1.037 0 1.885-.45 1.885-1s-1.07-1-2.378-1c-3.217 0-4.434-1.734-5.625-8.014-.853-4.498-.752-5.599.653-7.151.913-1.009 2.217-1.835 2.898-1.835s1.497-.675 1.814-1.5 1.264-1.5 2.107-1.5c.842 0 1.531-.525 1.531-1.167 0-.641-.288-.878-.64-.526-.747.747-6.36-2.363-6.36-3.523 0-1.217 1.342-.933 3.832.811 1.509 1.057 3.186 1.365 4.972.913 2.671-.676 2.66-.695-1.201-2.028-4.121-1.423-8.058-4.48-5.769-4.48.694 0 2.959.819 5.032 1.821 2.791 1.348 4.335 1.568 5.951.847 3.098-1.382 2.702-2.141-1.22-2.34-3.217-.163-10.22-3.039-9.398-3.86.211-.211 3.065.246 6.343 1.016 5.597 1.316 6.078 1.283 7.93-.542 1.957-1.927 1.932-1.942-3.168-1.942-5.545 0-8.304-.696-8.304-2.096 0-.485 2.715-.726 6.034-.536 5.673.324 6.156.174 8.068-2.512 1.119-1.571 1.58-2.856 1.025-2.856s-1.261.408-1.569.906c-.835 1.35-10.579 2.473-11.704 1.348-.612-.612 1.244-1.426 5.128-2.25 4.672-.992 6.544-1.934 8.052-4.052 1.081-1.519 1.966-2.96 1.966-3.203 0-.244-2.137.572-4.75 1.813-5.394 2.563-10.255 3.848-10.24 2.707.006-.423 2.624-1.984 5.818-3.47 3.738-1.739 6.228-3.626 6.989-5.297 1.703-3.738 1.476-4.119-1.067-1.789-2.642 2.42-10.732 6.639-11.417 5.953-.261-.26 1.563-1.874 4.052-3.587 5.613-3.862 7.619-6.648 7.6-10.552-.022-4.244-1.651-6.561-1.766-2.51-.049 1.725-.894 4.34-1.877 5.81s-1.649 3.123-1.481 3.673-.036.658-.453.241-1.804.222-3.08 1.42c-3.747 3.521-3.694 1.466.079-3.05 4.316-5.166 4.963-7.157 4.13-12.71-.811-5.409-2.022-5.748-2.079-.583-.038 3.438-5.098 15.876-6.065 14.909-.219-.22.474-2.933 1.539-6.03 2.709-7.872 3.029-10.85 1.531-14.248l-1.301-2.949-.081 3.05c-.044 1.677.459 3.59 1.119 4.25.933.933.933 1.2 0 1.2-.66 0-1.2 1.139-1.2 2.532 0 2.302-2.441 9.468-3.225 9.468-.18 0-.156-1.8.054-4 .46-4.823-.446-5.242-1.624-.75-.725 2.763-.954 1.952-1.528-5.417-.725-9.293-1.402-12.121-2.71-11.313-.453.28-1.112-.4-1.464-1.511-.807-2.544-5.355-8.009-6.665-8.009-.541 0 .399 1.678 2.089 3.728m7.732 4.022a646 646 0 0 1 3.051 4.167c.159.229.583.123.942-.235.358-.359-.542-1.845-2-3.303-1.459-1.459-2.652-3.04-2.652-3.515s-.473-.864-1.051-.864.191 1.688 1.71 3.75M173.5 58.604c-6.905 5.386-9.5 8.004-9.5 9.587 0 .445 1.781-.972 3.959-3.15s5.889-4.937 8.25-6.134 4.579-2.625 4.932-3.173c.352-.549.932-.08 1.288 1.041.356 1.122 1.305 2.293 2.109 2.601 2.745 1.053 1.467 2.396-2.903 3.051-2.401.36-5.111 1.199-6.023 1.864-1.35.984-.539 1.146 4.362.87 5.143-.289 6.104-.07 6.596 1.5 1.009 3.231 1.986 4.632 4.295 6.165 2.197 1.459 2.236 1.423 1.554-1.414-.385-1.602-1.367-4.262-2.182-5.912-1.744-3.527-8.404-12.532-9.192-12.427-.3.04-3.695 2.529-7.545 5.531m2 2.238c-1.65 1.008-3.667 2.694-4.483 3.746-1.414 1.824-1.391 1.837.5.281 1.091-.897 3.783-2.565 5.983-3.706s3.325-2.093 2.5-2.115-2.85.785-4.5 1.794m.505 6.052c-1.372.381-2.647 1.574-2.834 2.65-.417 2.404-2.926 4.487-4.62 3.837-.69-.265-1.966.603-2.834 1.928C162.603 80.061 159 82.577 159 80c0-.55.663-1 1.474-1 1.56 0 4.875-5.454 4.322-7.111-.179-.537-1.433.056-2.787 1.317-1.354 1.262-2.773 2.294-3.152 2.294-.38 0-1.065.41-1.524.91-.49.536-.275.588.524.125 1.067-.618 1.176-.278.508 1.59-2.118 5.928.13 13.464 4.756 15.94 2.005 1.073 2.098.938 1.701-2.464-.533-4.562.775-3.32 2.587 2.457 1.07 3.412 1.425 3.862 1.531 1.942.131-2.37.212-2.331 1.551.75 1.363 3.135 2.631 3.728 7.009 3.272 2.774-.288 5.5-2.937 5.5-5.344 0-1.106.311-1.701.69-1.321.38.38 1.243-.558 1.919-2.083 1.174-2.652 1.232-2.671 1.31-.441.243 6.974 5.952-4.599 6.037-12.238L193 74.69l-2.233 1.905c-1.85 1.578-1.998 1.603-.867.143 1.196-1.544 1.039-2.065-1.267-4.203-1.448-1.342-2.633-3.361-2.633-4.487 0-1.718-.605-2.032-3.75-1.948-2.062.055-4.873.412-6.245.794M168 69c-1.828 1.181-.249 1.181 2.5 0 1.319-.567 1.489-.878.5-.914-.825-.031-2.175.381-3 .914m8 14.729c2.038.776 2.966 2.337 2.985 5.021.012 1.737-.555 2.25-2.485 2.25-1.375 0-2.545-.562-2.6-1.25s-.423-.125-.819 1.25c-.529 1.837-.172 3.095 1.349 4.745l2.07 2.246 2.101-2.575c1.677-2.056 1.963-3.332 1.416-6.323-.874-4.78-1.722-6.112-3.826-6.014-1.38.064-1.415.184-.191.65m-2 9.649c0 .207.615.888 1.367 1.512 1.04.863 1.668.773 2.623-.378 1.066-1.284.86-1.512-1.368-1.512-1.442 0-2.622.17-2.622.378m12.346 4.229c-.385 1.041-1.183 2.224-1.773 2.628-.729.499-.683.739.142.75 1.372.017 3.747-3.857 2.89-4.714-.307-.306-.873.295-1.259 1.336m-19.12 2.972c.95.991 1.942 1.587 2.205 1.324s-.514-1.074-1.726-1.803c-2.107-1.265-2.128-1.243-.479.479m3.775 2.1c-.001.098.611.791 1.36 1.539 1.703 1.703 9.29 1.134 10.013-.751.397-1.033-.831-1.294-5.43-1.151-3.268.101-5.943.264-5.943.363m-1.981 1.845c.696.838 1.471 1.318 1.723 1.067.693-.694-.716-2.591-1.924-2.591-.664 0-.588.574.201 1.524m14.439-.457c-.363.586-.445 1.281-.183 1.543s.743-.218 1.069-1.067c.676-1.762.1-2.072-.886-.476m3.541.184c0 .697.9 1.83 2 2.517 1.605 1.002 2 .999 2-.019 0-.697-.9-1.83-2-2.517-1.605-1.002-2-.999-2 .019m-12.878 2.628c-2.17 1.413-.465 2.904 3.115 2.724 2.129-.107 3.263-.675 3.263-1.633 0-1.695-4.317-2.433-6.378-1.091M185 108.441c0 .857.45 1.559 1 1.559s1-.423 1-.941-.45-1.219-1-1.559-1 .084-1 .941M175 112c0 .55 1.125 1 2.5 1s2.5-.45 2.5-1-1.125-1-2.5-1-2.5.45-2.5 1m.702 4.32c-1.484 1.175-2.189 3.899-3.347 12.93-.356 2.774-.212 4.75.345 4.75 1.227 0 3.499-12.216 2.725-14.651-.556-1.748-.503-1.745.966.054 1.495 1.832 1.581 1.834 2.256.074.613-1.598.776-1.627 1.278-.228.483 1.346.857 1.395 2.342.304.972-.715 1.513-1.963 1.201-2.775-.688-1.793-5.707-2.089-7.766-.458m5.953 5.509c-1.95 2.154-2.087 4.998-.497 10.305 1.721 5.744 4.4 5.255 5.224-.954.616-4.645-.743-11.18-2.325-11.18-.411 0-1.492.823-2.402 1.829m-11.988.838c-.867.867-.648 9.978.333 13.833.538 2.115.798.417.882-5.75.118-8.752.031-9.33-1.215-8.083m13.348 15.583c.026 2.111 1.7 4.044 2.873 3.319 1.953-1.207 1.299-4.569-.888-4.569-1.1 0-1.993.563-1.985 1.25m-10.701 4.322c-1.189 1.335-1.816 2.428-1.393 2.428 1.023 0 4.517-3.895 3.978-4.434-.232-.232-1.395.67-2.585 2.006m-5.768 7.764c-1.601 1.176-1.765 1.858-.908 3.779l1.046 2.344 1.221-2.282c.672-1.255 1.081-2.956.908-3.78-.273-1.308-.56-1.315-2.267-.061m-1.848 9.414c.349.963 1.146 2.511 1.772 3.442.961 1.431 1.152 1.16 1.234-1.75.078-2.73-.289-3.442-1.772-3.442-1.355 0-1.695.481-1.234 1.75"/></svg>